# xmcd
#
# Track frame offsets: 
#        150
#        12172
#        26885
#        41147
#        54422
#        68230
#        81507
#        94395
#        109340
#        122095
#        134365
#        149940
#        161162
#        174112
#        187047
#        196890
#        210885
#
# Disc length: 3005 seconds
#
# Revision: 1
# Processed by: cddbd v1.5.2PL0 Copyright (c) Steve Scherf et al.
# Submitted via: ExactAudioCopyFreeDBPlugin 1.0
#
DISCID=fe0bbb11
DTITLE=Various Artist - The Wonderful 30's Disc 2
DYEAR=2005
DGENRE=Classical
TTITLE0=Elmer Feldcamp - Freddy Martin Orchestra - All I Do Is Dream Of
TTITLE0=You
TTITLE1=Lou Conrad - Meyer Davis Orchestra - Easter Parade
TTITLE2=Ethel Waters - Stormy Weather
TTITLE3=Fats Waller - A Little Bit Independent
TTITLE4=Kay St. Germain - Anson Weeks Orchestra - I Only Have Eyes For 
TTITLE4=You
TTITLE5=Castillian Troubadours - Carioco
TTITLE6=Ruth Etting - Jimmie Grier Orchestra - Out In The Cold Again
TTITLE7=Carmen Lombardo - Guy Lombardo - The Way You Look Tonight
TTITLE8=Dick Stone - Nat Brandwynne Orchestra - Just One Of Those Thing
TTITLE8=s
TTITLE9=Francis Langford - Jimmie Dorsey Orchestra - Easy To Love
TTITLE10=Joe Martin - Isham Jones Orchestra - With My Eyes Wide Open I'
TTITLE10=m Dreaming
TTITLE11=Perry Como - Ted Weems - You Can't Pull The Wool Over My Eyes
TTITLE12=Morton Downey - Thanks A Million
TTITLE13=Ann Lee Davies - Frank Dalley Orchestra - With Plenty Of Money
TTITLE13=And You
TTITLE14=Ruth Etting - Victor Young Orchestra - Zing! Went The Strings 
TTITLE14=Of My Heart
TTITLE15=Kenny Baker - Phil Ohman Orchestra - Isn't This A Lovely Day
TTITLE16=Hildegarde - William Wirges Orchestra - Pennies From Heaven
EXTD=
EXTT0=
EXTT1=
EXTT2=
EXTT3=
EXTT4=
EXTT5=
EXTT6=
EXTT7=
EXTT8=
EXTT9=
EXTT10=
EXTT11=
EXTT12=
EXTT13=
EXTT14=
EXTT15=
EXTT16=
PLAYORDER=
